<?xml version="1.0" encoding="UTF-8" standalone="no"?><!DOCTYPE svg PUBLIC "-//W3C//DTD SVG 1.1//EN" "http://www.w3.org/Graphics/SVG/1.1/DTD/svg11.dtd"><svg width="100%" height="100%" viewBox="0 0 72 72" version="1.1" xmlns="http://www.w3.org/2000/svg" xmlns:xlink="http://www.w3.org/1999/xlink" xml:space="preserve" xmlns:serif="http://www.serif.com/" style="fill-rule:evenodd;clip-rule:evenodd;stroke-linecap:round;stroke-linejoin:round;stroke-miterlimit:1.5;"><path d="M61.177,22.215l0,34.831c0,6.948 -5.641,12.589 -12.589,12.589l-25.177,0c-6.948,0 -12.589,-5.641 -12.589,-12.589l0,-34.831c0,-6.948 5.641,-12.589 12.589,-12.589l25.177,0c6.948,0 12.589,5.641 12.589,12.589Z" style="fill:#fff;stroke:#000;stroke-width:2px;"/><path d="M61.177,9.863l0,9.074c0,2.504 -2.033,4.537 -4.537,4.537l-18.718,0c-2.504,0 -4.537,-2.033 -4.537,-4.537l0,-9.074c0,-2.504 2.033,-4.537 4.537,-4.537l18.718,0c2.504,0 4.537,2.033 4.537,4.537Z" style="fill:#fff;stroke:#000;stroke-width:2px;"/><path d="M29.396,6.401l0,2.15c0,0.593 -0.482,1.075 -1.075,1.075l-7.07,0c-0.593,0 -1.075,-0.482 -1.075,-1.075l0,-2.15c0,-0.593 0.482,-1.075 1.075,-1.075l7.07,0c0.593,0 1.075,0.482 1.075,1.075Z" style="fill:#fff;stroke:#000;stroke-width:2px;"/><rect x="30.592" y="11.888" width="28.546" height="16.875" style="fill:#fff;stroke:#fff;stroke-width:2px;"/><rect x="43.669" y="18.798" width="2.394" height="2.533" style="fill:#fff;stroke:#fff;stroke-width:2px;"/><path d="M54.478,9.391l0,1.929c0,0.532 -0.432,0.965 -0.965,0.965l-12.087,0c-0.532,0 -0.965,-0.432 -0.965,-0.965l0,-1.929c0,-0.532 0.432,-0.965 0.965,-0.965l12.087,0c0.532,0 0.965,0.432 0.965,0.965Z" style="fill:#fff;stroke:#000;stroke-width:2px;"/><rect x="20.176" y="28.762" width="30.678" height="23.376" style="fill:#fff;stroke:#000;stroke-width:2px;"/></svg>