<?xml version="1.0" encoding="UTF-8" standalone="no"?><!DOCTYPE svg PUBLIC "-//W3C//DTD SVG 1.1//EN" "http://www.w3.org/Graphics/SVG/1.1/DTD/svg11.dtd"><svg width="100%" height="100%" viewBox="0 0 72 72" version="1.1" xmlns="http://www.w3.org/2000/svg" xmlns:xlink="http://www.w3.org/1999/xlink" xml:space="preserve" xmlns:serif="http://www.serif.com/" style="fill-rule:evenodd;clip-rule:evenodd;stroke-linecap:round;stroke-linejoin:round;stroke-miterlimit:1.5;"><rect x="4.706" y="27.016" width="62.589" height="37.057" style="fill:#fff;stroke:#000;stroke-width:2px;"/><path d="M4.706,27.016l12.184,-14.318l39.376,0l11.029,14.318l-62.589,0Z" style="fill:#fff;stroke:#000;stroke-width:2px;"/><path d="M36,27.016l0,-14.318" style="fill:none;stroke:#000;stroke-width:2px;"/><path d="M31.169,54.443l-2.119,-1.428l-1.007,-2.284l-0.318,-1.237c-0.323,-1.551 -0.119,-3.101 0.265,-4.652c0.21,-1.167 0.903,-1.827 1.96,-2.106l2.649,-0.904l2.49,-1.22l1.826,-1.5l0.559,-0.944c0.267,-0.587 0.298,-2.649 0,-3.236l0,-1.19l3.073,1.618l2.097,2.545c1.691,3.18 2.191,4.952 1.452,6.937c-0.596,2.423 -1.647,4.687 -3.285,6.745l-3.338,2.665l-1.43,0.999l-2.331,0.857l-1.113,-0.286l-0.954,-0.761l-0.477,-0.619Z" style="fill:#a5c5a6;stroke:#000;stroke-width:2px;"/><path d="M25.447,57.346l3.973,-2.998l1.324,-1.094l2.437,-1.999l2.781,-3.331" style="fill-opacity:0;stroke:#000;stroke-width:2px;"/></svg>