<?xml version="1.0" encoding="UTF-8" standalone="no"?><!DOCTYPE svg PUBLIC "-//W3C//DTD SVG 1.1//EN" "http://www.w3.org/Graphics/SVG/1.1/DTD/svg11.dtd"><svg width="100%" height="100%" viewBox="0 0 72 72" version="1.1" xmlns="http://www.w3.org/2000/svg" xmlns:xlink="http://www.w3.org/1999/xlink" xml:space="preserve" xmlns:serif="http://www.serif.com/" style="fill-rule:evenodd;clip-rule:evenodd;stroke-linecap:round;stroke-linejoin:round;stroke-miterlimit:1.5;"><ellipse cx="22.549" cy="26.492" rx="15.68" ry="15.144" style="fill:#b591a9;stroke:#000;stroke-width:2px;"/><path d="M18.843,11.777l3.706,-5.617l3.872,5.188l-7.578,0.429Z" style="fill:#b591a9;stroke:#000;stroke-width:2px;"/><path d="M18.843,44.963l2.484,-3.327" style="fill:none;stroke:#000;stroke-width:2px;"/><path d="M26.421,44.963l-3.872,-3.327" style="fill:none;stroke:#000;stroke-width:2px;"/><path d="M20.085,13.379l2.464,-3.672l1.936,2.998" style="fill:#b591a9;stroke:#b591a9;stroke-width:2px;"/><ellipse cx="46.201" cy="29.301" rx="15.68" ry="15.144" style="fill:#b591a9;stroke:#000;stroke-width:2px;"/><path d="M42.495,14.586l3.706,-5.617l3.872,5.188l-7.578,0.429Z" style="fill:#b591a9;stroke:#000;stroke-width:2px;"/><path d="M42.495,47.771l2.484,-3.327" style="fill:none;stroke:#000;stroke-width:2px;"/><path d="M50.072,47.771l-3.872,-3.327" style="fill:none;stroke:#000;stroke-width:2px;"/><path d="M43.736,16.187l2.464,-3.672l1.936,2.998" style="fill:#b591a9;stroke:#b591a9;stroke-width:2px;"/><ellipse cx="24.437" cy="46.052" rx="15.68" ry="15.144" style="fill:#b591a9;stroke:#000;stroke-width:2px;"/><path d="M20.731,31.337l3.706,-5.617l3.872,5.188l-7.578,0.429Z" style="fill:#b591a9;stroke:#000;stroke-width:2px;"/><path d="M20.731,64.523l2.484,-3.327" style="fill:none;stroke:#000;stroke-width:2px;"/><path d="M28.309,64.523l-3.872,-3.327" style="fill:none;stroke:#000;stroke-width:2px;"/><path d="M21.973,32.939l2.464,-3.672l1.936,2.998" style="fill:#b591a9;stroke:#b591a9;stroke-width:2px;"/><ellipse cx="49.451" cy="47.37" rx="15.68" ry="15.144" style="fill:#b591a9;stroke:#000;stroke-width:2px;"/><ellipse cx="49.451" cy="47.37" rx="9.172" ry="8.859" style="fill:#b591a9;stroke:#000;stroke-width:2px;"/><path d="M45.745,32.655l3.706,-5.617l3.872,5.188l-7.578,0.429Z" style="fill:#b591a9;stroke:#000;stroke-width:2px;"/><path d="M45.745,65.84l2.484,-3.327" style="fill:none;stroke:#000;stroke-width:2px;"/><path d="M53.323,65.84l-3.872,-3.327" style="fill:none;stroke:#000;stroke-width:2px;"/><path d="M49.451,29.846l1.963,3.354l-3.927,0l1.963,-3.354Z" style="fill:#b591a9;stroke:#b591a9;stroke-width:2px;"/><ellipse cx="49.451" cy="47.37" rx="2.369" ry="2.288" style="fill:#b591a9;stroke:#000;stroke-width:2px;"/></svg>