<?xml version="1.0" encoding="UTF-8" standalone="no"?><!DOCTYPE svg PUBLIC "-//W3C//DTD SVG 1.1//EN" "http://www.w3.org/Graphics/SVG/1.1/DTD/svg11.dtd"><svg width="100%" height="100%" viewBox="0 0 72 72" version="1.1" xmlns="http://www.w3.org/2000/svg" xmlns:xlink="http://www.w3.org/1999/xlink" xml:space="preserve" xmlns:serif="http://www.serif.com/" style="fill-rule:evenodd;clip-rule:evenodd;stroke-linecap:round;stroke-linejoin:round;stroke-miterlimit:1.5;"><path d="M57.277,22.209l0,33.617c0,5.871 -4.767,10.638 -10.638,10.638l-21.277,0c-5.871,0 -10.638,-4.767 -10.638,-10.638l0,-33.617c0,-5.871 4.767,-10.638 10.638,-10.638l21.277,0c5.871,0 10.638,4.767 10.638,10.638Z" style="fill:#fff;stroke:#000;stroke-width:2px;"/><path d="M49.294,8.379l0,2.128c0,0.587 -0.477,1.064 -1.064,1.064l-24.539,0c-0.587,0 -1.064,-0.477 -1.064,-1.064l0,-2.128c0,-0.587 0.477,-1.064 1.064,-1.064l24.539,0c0.587,0 1.064,0.477 1.064,1.064Z" style="fill:#fff;stroke:#000;stroke-width:2px;"/><rect x="28.726" y="28.875" width="28.55" height="20.284" style="fill:#fff;stroke:#000;stroke-width:2px;"/></svg>