<?xml version="1.0" encoding="UTF-8" standalone="no"?><!DOCTYPE svg PUBLIC "-//W3C//DTD SVG 1.1//EN" "http://www.w3.org/Graphics/SVG/1.1/DTD/svg11.dtd"><svg width="100%" height="100%" viewBox="0 0 72 72" version="1.1" xmlns="http://www.w3.org/2000/svg" xmlns:xlink="http://www.w3.org/1999/xlink" xml:space="preserve" xmlns:serif="http://www.serif.com/" style="fill-rule:evenodd;clip-rule:evenodd;stroke-linecap:round;stroke-linejoin:round;stroke-miterlimit:1.5;"><path d="M39.34,1.288l8.325,3.123l11.938,5.302c0,0 2.832,0.464 2.832,1.14c0,0.676 2.397,1.693 2.397,1.693l-4.648,5.084l-2.445,6.681l-25.297,45.281l-3.922,-1.017l-5.737,-2.141l-5.374,-3.233l-4.648,-1.908l-2.905,-3.103l-2.542,-1.525l1.452,-1.961l30.72,-51.745l-0.145,-1.67Z" style="fill:#fff;stroke:#000;stroke-width:2px;"/><path d="M47.436,10.446l-25.642,49.733c-0.52,1.008 -1.76,1.404 -2.768,0.885l-3.652,-1.883c-1.008,-0.52 -1.404,-1.76 -0.885,-2.768l25.642,-49.733c0.52,-1.008 1.76,-1.404 2.768,-0.885l3.652,1.883c1.008,0.52 1.404,1.76 0.885,2.768Z" style="fill:#f69fac;stroke:#000;stroke-width:2px;"/><path d="M57.51,15.731l-25.568,49.589c-0.52,1.008 -1.76,1.404 -2.768,0.885l-3.652,-1.883c-1.008,-0.52 -1.404,-1.76 -0.885,-2.768l25.568,-49.589c0.52,-1.008 1.76,-1.404 2.768,-0.885l3.652,1.883c1.008,0.52 1.404,1.76 0.885,2.768Z" style="fill:#f69fac;stroke:#000;stroke-width:2px;"/></svg>