<?xml version="1.0" encoding="UTF-8" standalone="no"?><!DOCTYPE svg PUBLIC "-//W3C//DTD SVG 1.1//EN" "http://www.w3.org/Graphics/SVG/1.1/DTD/svg11.dtd"><svg width="100%" height="100%" viewBox="0 0 300 300" version="1.1" xmlns="http://www.w3.org/2000/svg" xmlns:xlink="http://www.w3.org/1999/xlink" xml:space="preserve" xmlns:serif="http://www.serif.com/" style="fill-rule:evenodd;clip-rule:evenodd;stroke-linecap:round;stroke-linejoin:round;stroke-miterlimit:1.5;"><path d="M41.844,33.276c-1.182,16.548 2.955,47.872 2.955,47.872l15.957,36.052l-6.501,29.431l-3.546,55.084l-2.364,37.234l-6.501,26.596l-8.865,17.139l222.222,-2.364l-4.137,-8.274l-0.591,-27.187l8.865,-36.643l7.683,-25.414l-1.182,-52.009l-13.002,-29.551l-9.456,-36.052l5.91,-30.142l5.319,-13.593l-125.295,9.456l-88.061,-13.593c0,0 1.773,-0.591 0.591,15.957l-0.001,0.001Z" style="fill:#fff;stroke:#000;stroke-width:8.33px;"/><path d="M62.252,110.147l13.593,0" style="fill:none;stroke:#000;stroke-width:8.33px;"/><path d="M244.284,63.831l-20.686,-1.773" style="fill:none;stroke:#000;stroke-width:8.33px;"/><path d="M44.962,58.05l24.345,0.282" style="fill:none;stroke:#000;stroke-width:8.33px;"/><path d="M142.908,121.513l32.624,0l-1.891,52.009l-3.783,40.662l-19.858,22.695l-12.766,9.929l12.766,-54.846l0,-35.934l-7.092,-34.515Z" style="fill:#d49797;stroke:#000;stroke-width:6.2px;"/><path d="M156.383,121.513l-19.149,-17.494l19.149,17.494Z" style="fill:#d49797;stroke:#000;stroke-width:6.2px;"/><path d="M156.383,94.563l0,26.95l19.149,-17.494l-19.149,17.494" style="fill:#d49797;stroke:#000;stroke-width:6.2px;"/></svg>